<svg viewBox="0 0 200 300" xmlns="http://www.w3.org/2000/svg" class="character-woman-fantasy">
  <!-- Character: Fantasy Woman -->
  
  <!-- Body Group -->
  <g class="character-body">
    
    <!-- Head -->
    <g class="part head">
      <circle cx="100" cy="60" r="35" class="skin" fill="#FDBCB4"/>
      
      <!-- Hair -->
      <path d="M 60 35 Q 100 15, 140 35 Q 150 60, 145 85 L 135 80 Q 125 65, 115 60 L 115 80 Q 100 85, 85 80 L 85 60 Q 75 65, 65 80 L 55 85 Q 50 60, 60 35" 
            class="hair" fill="#9370DB"/>
      
      <!-- Eyes -->
      <g class="eyes">
        <ellipse cx="85" cy="55" rx="3" ry="5" class="eye" fill="#4B0082"/>
        <ellipse cx="115" cy="55" rx="3" ry="5" class="eye" fill="#4B0082"/>
        <!-- Eyelashes -->
        <path d="M 82 50 L 80 48 M 88 50 L 90 48" class="eyelash" stroke="#9370DB" stroke-width="1" fill="none"/>
        <path d="M 112 50 L 110 48 M 118 50 L 120 48" class="eyelash" stroke="#9370DB" stroke-width="1" fill="none"/>
      </g>
      
      <!-- Mouth -->
      <path d="M 90 70 Q 100 75, 110 70" class="mouth" stroke="#000" stroke-width="2" fill="none"/>
      
      <!-- Ears -->
      <circle cx="65" cy="60" r="8" class="skin ear" fill="#FDBCB4"/>
      <circle cx="135" cy="60" r="8" class="skin ear" fill="#FDBCB4"/>
      
      <!-- Elven Ears -->
      <path d="M 58 58 Q 50 60, 52 65" class="ear-tip" stroke="#FDBCB4" stroke-width="3" fill="none"/>
      <path d="M 142 58 Q 150 60, 148 65" class="ear-tip" stroke="#FDBCB4" stroke-width="3" fill="none"/>
    </g>
    
    <!-- Torso -->
    <g class="part torso">
      <!-- Fantasy Dress -->
      <path d="M 75 90 L 75 130 Q 75 140, 85 140 L 115 140 Q 125 140, 125 130 L 125 90 Q 100 85, 75 90" 
            class="dress" fill="#9370DB"/>
      
      <!-- Dress Details -->
      <path d="M 85 90 L 85 130" class="dress-seam" stroke="#DDA0DD" stroke-width="2"/>
      <path d="M 115 90 L 115 130" class="dress-seam" stroke="#DDA0DD" stroke-width="2"/>
      
      <!-- Arms -->
      <g class="arms">
        <!-- Left Arm -->
        <rect x="60" y="95" width="15" height="40" rx="7" class="dress arm-left" fill="#9370DB"/>
        <circle cx="67" cy="140" r="8" class="skin hand" fill="#FDBCB4"/>
        
        <!-- Right Arm -->
        <rect x="125" y="95" width="15" height="40" rx="7" class="dress arm-right" fill="#9370DB"/>
        <circle cx="133" cy="140" r="8" class="skin hand" fill="#FDBCB4"/>
      </g>
    </g>
    
    <!-- Legs -->
    <g class="part legs">
      <!-- Left Leg -->
      <rect x="80" y="140" width="18" height="50" rx="9" class="dress leg-left" fill="#9370DB"/>
      <ellipse cx="89" cy="195" rx="12" ry="8" class="shoes shoe-left" fill="#FFB6C1"/>
      
      <!-- Right Leg -->
      <rect x="102" y="140" width="18" height="50" rx="9" class="dress leg-right" fill="#9370DB"/>
      <ellipse cx="111" cy="195" rx="12" ry="8" class="shoes shoe-right" fill="#FFB6C1"/>
    </g>
    
    <!-- Accessories -->
    <g class="accessories">
      <!-- Tiara -->
      <path d="M 70 45 L 85 35 L 100 40 L 115 35 L 130 45" class="tiara" stroke="#FFD700" stroke-width="3" fill="none"/>
      <circle cx="85" cy="35" r="3" class="gem" fill="#FF1493"/>
      <circle cx="100" cy="40" r="3" class="gem" fill="#00CED1"/>
      <circle cx="115" cy="35" r="3" class="gem" fill="#FF1493"/>
      
      <!-- Necklace -->
      <circle cx="100" cy="85" r="4" class="necklace" fill="#FFD700"/>
      <path d="M 85 85 Q 100 95, 115 85" class="necklace-chain" stroke="#FFD700" stroke-width="2" fill="none"/>
      
      <!-- Magic Aura -->
      <circle cx="100" cy="150" r="80" class="magic-aura" stroke="#9370DB" stroke-width="2" fill="none" opacity="0.3"/>
      <circle cx="100" cy="150" r="90" class="magic-aura" stroke="#DDA0DD" stroke-width="1" fill="none" opacity="0.2"/>
      
      <!-- Dress Pattern -->
      <circle cx="90" cy="110" r="3" class="pattern" fill="#DDA0DD"/>
      <circle cx="110" cy="110" r="3" class="pattern" fill="#DDA0DD"/>
      <circle cx="100" cy="125" r="3" class="pattern" fill="#DDA0DD"/>
    </g>
    
  </g>
  
  <!-- Animation Classes -->
  <style>
    .character-woman-fantasy {
      transform-origin: 100px 150px;
    }
    
    /* Base styles for customization */
    .skin {
      fill: var(--skin-color, #FDBCB4);
    }
    
    .hair {
      fill: var(--hair-color, #9370DB);
    }
    
    .dress {
      fill: var(--dress-color, #9370DB);
    }
    
    .shoes {
      fill: var(--shoes-color, #FFB6C1);
    }
    
    .tiara {
      stroke: var(--tiara-color, #FFD700);
    }
    
    .gem {
      fill: var(--gem-color, #FF1493);
    }
    
    .necklace {
      fill: var(--necklace-color, #FFD700);
    }
    
    .necklace-chain {
      stroke: var(--necklace-color, #FFD700);
    }
    
    .magic-aura {
      stroke: var(--aura-color, #9370DB);
    }
    
    .dress-seam {
      stroke: var(--seam-color, #DDA0DD);
    }
    
    .pattern {
      fill: var(--pattern-color, #DDA0DD);
    }
    
    .eyelash {
      stroke: var(--eyelash-color, #9370DB);
    }
    
    .ear-tip {
      stroke: var(--skin-color, #FDBCB4);
    }
    
    /* Animation states will be added via external CSS */
  </style>
</svg>
