<svg viewBox="0 0 200 300" xmlns="http://www.w3.org/2000/svg" class="character-girl-traditional">
  <!-- Character: Traditional Girl (Asian Cultural Representation) -->
  
  <!-- Body Group -->
  <g class="character-body">
    
    <!-- Head -->
    <g class="part head">
      <circle cx="100" cy="60" r="35" class="skin" fill="#FDBCB4"/>
      
      <!-- Hair (Traditional Asian style with ornaments) -->
      <path d="M 65 35 Q 100 20, 135 35 Q 140 55, 135 75 L 130 70 Q 120 55, 115 50 L 115 65 Q 100 70, 85 65 L 85 50 Q 80 55, 70 70 L 65 75 Q 60 55, 65 35" 
            class="hair" fill="#000000"/>
      
      <!-- Traditional Hair Ornaments -->
      <circle cx="80" cy="35" r="4" class="hair-ornament" fill="#FFD700"/>
      <circle cx="120" cy="35" r="4" class="hair-ornament" fill="#FFD700"/>
      <path d="M 70 30 L 75 35 M 125 30 L 130 35" class="hair-pin" stroke="#FFD700" stroke-width="2" fill="none"/>
      
      <!-- Eyes -->
      <g class="eyes">
        <ellipse cx="85" cy="55" rx="3" ry="5" class="eye" fill="#000000"/>
        <ellipse cx="115" cy="55" rx="3" ry="5" class="eye" fill="#000000"/>
      </g>
      
      <!-- Mouth -->
      <path d="M 90 70 Q 100 75, 110 70" class="mouth" stroke="#000000" stroke-width="2" fill="none"/>
      
      <!-- Ears -->
      <circle cx="65" cy="60" r="8" class="skin ear" fill="#FDBCB4"/>
      <circle cx="135" cy="60" r="8" class="skin ear" fill="#FDBCB4"/>
      
      <!-- Traditional Earrings -->
      <circle cx="65" cy="60" r="3" class="earring" fill="#FFD700"/>
      <circle cx="135" cy="60" r="3" class="earring" fill="#FFD700"/>
    </g>
    
    <!-- Torso -->
    <g class="part torso">
      <!-- Traditional Dress -->
      <path d="M 70 90 L 70 140 Q 70 150, 80 150 L 120 150 Q 130 150, 130 140 L 130 90 Q 100 85, 70 90" 
            class="dress" fill="#FF69B4"/>
      
      <!-- Dress Collar -->
      <path d="M 85 90 Q 100 95, 115 90" class="dress-collar" stroke="#FFFFFF" stroke-width="2" fill="none"/>
      
      <!-- Traditional Patterns -->
      <circle cx="85" cy="110" r="3" class="pattern" fill="#FFFFFF"/>
      <circle cx="100" cy="110" r="3" class="pattern" fill="#FFFFFF"/>
      <circle cx="115" cy="110" r="3" class="pattern" fill="#FFFFFF"/>
      <circle cx="85" cy="125" r="3" class="pattern" fill="#FFFFFF"/>
      <circle cx="100" cy="125" r="3" class="pattern" fill="#FFFFFF"/>
      <circle cx="115" cy="125" r="3" class="pattern" fill="#FFFFFF"/>
      
      <!-- Sash -->
      <rect x="70" y="120" width="60" height="8" class="sash" fill="#FFD700"/>
      <rect x="70" y="120" width="60" height="2" class="sash-pattern" stroke="#FFFFFF" stroke-width="1" fill="none"/>
      
      <!-- Arms -->
      <g class="arms">
        <!-- Left Arm -->
        <rect x="60" y="95" width="15" height="40" rx="7" class="dress arm-left" fill="#FF69B4"/>
        <circle cx="67" cy="140" r="8" class="skin hand" fill="#FDBCB4"/>
        <!-- Traditional Bracelet -->
        <rect x="60" y="125" width="15" height="3" class="bracelet" fill="#FFD700"/>
        
        <!-- Right Arm -->
        <rect x="125" y="95" width="15" height="40" rx="7" class="dress arm-right" fill="#FF69B4"/>
        <circle cx="133" cy="140" r="8" class="skin hand" fill="#FDBCB4"/>
        <!-- Traditional Bracelet -->
        <rect x="125" y="125" width="15" height="3" class="bracelet" fill="#FFD700"/>
      </g>
    </g>
    
    <!-- Legs -->
    <g class="part legs">
      <!-- Left Leg -->
      <rect x="80" y="150" width="18" height="50" rx="9" class="dress leg-left" fill="#FF69B4"/>
      <ellipse cx="89" cy="205" rx="12" ry="8" class="shoes shoe-left" fill="#FF1493"/>
      
      <!-- Right Leg -->
      <rect x="102" y="150" width="18" height="50" rx="9" class="dress leg-right" fill="#FF69B4"/>
      <ellipse cx="111" cy="205" rx="12" ry="8" class="shoes shoe-right" fill="#FF1493"/>
    </g>
    
    <!-- Accessories -->
    <g class="accessories">
      <!-- Traditional Necklace -->
      <circle cx="100" cy="85" r="3" class="necklace" fill="#FFD700"/>
      <path d="M 85 85 Q 100 90, 115 85" class="necklace-chain" stroke="#FFD700" stroke-width="2" fill="none"/>
      
      <!-- Hair Accessories -->
      <circle cx="90" cy="40" r="2" class="hair-flower" fill="#FF69B4"/>
      <circle cx="110" cy="40" r="2" class="hair-flower" fill="#FF69B4"/>
      
      <!-- Traditional Fan -->
      <g class="fan" transform="translate(45, 120)">
        <path d="M 0 0 Q 10 -5, 20 0 Q 15 10, 10 15 Q 5 10, 0 0" class="fan-body" fill="#FFD700"/>
        <path d="M 0 0 L 10 15 M 20 0 L 10 15" class="fan-ribs" stroke="#FFFFFF" stroke-width="1" fill="none"/>
        <circle cx="10" cy="15" r="2" class="fan-handle" fill="#8B4513"/>
      </g>
      
      <!-- Hand Accessories -->
      <circle cx="67" cy="140" r="2" class="hand-ring" stroke="#FFD700" stroke-width="1" fill="none"/>
      <circle cx="133" cy="140" r="2" class="hand-ring" stroke="#FFD700" stroke-width="1" fill="none"/>
    </g>
    
  </g>
  
  <!-- Animation Classes -->
  <style>
    .character-girl-traditional {
      transform-origin: 100px 150px;
    }
    
    /* Base styles for customization */
    .skin {
      fill: var(--skin-color, #FDBCB4);
    }
    
    .hair {
      fill: var(--hair-color, #000000);
    }
    
    .dress {
      fill: var(--dress-color, #FF69B4);
    }
    
    .shoes {
      fill: var(--shoes-color, #FF1493);
    }
    
    .pattern {
      fill: var(--pattern-color, #FFFFFF);
    }
    
    .dress-collar {
      stroke: var(--collar-color, #FFFFFF);
    }
    
    .sash {
      fill: var(--sash-color, #FFD700);
    }
    
    .sash-pattern {
      stroke: var(--sash-pattern-color, #FFFFFF);
    }
    
    .bracelet {
      fill: var(--bracelet-color, #FFD700);
    }
    
    .necklace {
      fill: var(--necklace-color, #FFD700);
    }
    
    .necklace-chain {
      stroke: var(--necklace-color, #FFD700);
    }
    
    .hair-ornament {
      fill: var(--ornament-color, #FFD700);
    }
    
    .hair-pin {
      stroke: var(--pin-color, #FFD700);
    }
    
    .earring {
      fill: var(--earring-color, #FFD700);
    }
    
    .hair-flower {
      fill: var(--flower-color, #FF69B4);
    }
    
    .fan-body {
      fill: var(--fan-color, #FFD700);
    }
    
    .fan-ribs {
      stroke: var(--fan-ribs-color, #FFFFFF);
    }
    
    .fan-handle {
      fill: var(--fan-handle-color, #8B4513);
    }
    
    .hand-ring {
      stroke: var(--ring-color, #FFD700);
    }
    
    /* Animation states will be added via external CSS */
  </style>
</svg>