<svg viewBox="0 0 200 300" xmlns="http://www.w3.org/2000/svg" class="character-girl-holiday">
  <!-- Character: Holiday Girl (Christmas/Winter Theme) -->
  
  <!-- Body Group -->
  <g class="character-body">
    
    <!-- Head -->
    <g class="part head">
      <circle cx="100" cy="60" r="35" class="skin" fill="#FDBCB4"/>
      
      <!-- Hair (Winter style with hat) -->
      <path d="M 65 40 Q 100 25, 135 40 Q 140 60, 135 75 L 130 70 Q 120 55, 115 50 L 115 65 Q 100 70, 85 65 L 85 50 Q 80 55, 70 70 L 65 75 Q 60 60, 65 40" 
            class="hair" fill="#8B4513"/>
      
      <!-- Santa Hat -->
      <path d="M 60 35 Q 100 20, 140 35 L 135 50 Q 100 45, 65 50 Z" class="santa-hat" fill="#DC143C"/>
      <rect x="95" y="15" width="10" height="15" class="hat-pom-pom" fill="#FFFFFF"/>
      <circle cx="100" cy="12" r="6" class="hat-top" fill="#FFFFFF"/>
      <rect x="60" y="48" width="80" height="4" class="hat-brim" fill="#FFFFFF"/>
      
      <!-- Eyes -->
      <g class="eyes">
        <ellipse cx="85" cy="55" rx="3" ry="5" class="eye" fill="#000000"/>
        <ellipse cx="115" cy="55" rx="3" ry="5" class="eye" fill="#000000"/>
        <!-- Sparkle in eyes -->
        <circle cx="87" cy="53" r="1" class="eye-sparkle" fill="#FFFFFF"/>
        <circle cx="117" cy="53" r="1" class="eye-sparkle" fill="#FFFFFF"/>
      </g>
      
      <!-- Mouth (Happy smile) -->
      <path d="M 90 70 Q 100 75, 110 70" class="mouth" stroke="#000000" stroke-width="2" fill="none"/>
      
      <!-- Rosy cheeks -->
      <circle cx="70" cy="65" r="5" class="cheek" fill="#FF69B4" opacity="0.5"/>
      <circle cx="130" cy="65" r="5" class="cheek" fill="#FF69B4" opacity="0.5"/>
      
      <!-- Ears -->
      <circle cx="65" cy="60" r="8" class="skin ear" fill="#FDBCB4"/>
      <circle cx="135" cy="60" r="8" class="skin ear" fill="#FDBCB4"/>
      
      <!-- Holiday Earrings -->
      <circle cx="65" cy="60" r="3" class="earring" fill="#FFD700"/>
      <circle cx="135" cy="60" r="3" class="earring" fill="#FFD700"/>
    </g>
    
    <!-- Torso -->
    <g class="part torso">
      <!-- Holiday Sweater -->
      <path d="M 70 90 L 70 140 Q 70 150, 80 150 L 120 150 Q 130 150, 130 140 L 130 90 Q 100 85, 70 90" 
            class="sweater" fill="#228B22"/>
      
      <!-- Sweater Pattern -->
      <circle cx="85" cy="105" r="4" class="snowflake" fill="#FFFFFF"/>
      <circle cx="100" cy="105" r="4" class="snowflake" fill="#FFFFFF"/>
      <circle cx="115" cy="105" r="4" class="snowflake" fill="#FFFFFF"/>
      <circle cx="85" cy="120" r="4" class="snowflake" fill="#FFFFFF"/>
      <circle cx="100" cy="120" r="4" class="snowflake" fill="#FFFFFF"/>
      <circle cx="115" cy="120" r="4" class="snowflake" fill="#FFFFFF"/>
      <circle cx="85" cy="135" r="4" class="snowflake" fill="#FFFFFF"/>
      <circle cx="100" cy="135" r="4" class="snowflake" fill="#FFFFFF"/>
      <circle cx="115" cy="135" r="4" class="snowflake" fill="#FFFFFF"/>
      
      <!-- Sweater Trim -->
      <rect x="70" y="90" width="60" height="5" class="sweater-trim" fill="#FFFFFF"/>
      <rect x="70" y="145" width="60" height="5" class="sweater-trim" fill="#FFFFFF"/>
      
      <!-- Arms -->
      <g class="arms">
        <!-- Left Arm -->
        <rect x="60" y="95" width="15" height="40" rx="7" class="sweater arm-left" fill="#228B22"/>
        <rect x="60" y="130" width="15" height="10" rx="5" class="sleeve-cuff" fill="#FFFFFF"/>
        <circle cx="67" cy="145" r="8" class="skin hand" fill="#FDBCB4"/>
        <!-- Holiday Mittens -->
        <circle cx="67" cy="145" r="10" class="mitten" fill="#DC143C"/>
        <rect x="65" y="140" width="4" height="8" class="mitten-cuff" fill="#FFFFFF"/>
        
        <!-- Right Arm -->
        <rect x="125" y="95" width="15" height="40" rx="7" class="sweater arm-right" fill="#228B22"/>
        <rect x="125" y="130" width="15" height="10" rx="5" class="sleeve-cuff" fill="#FFFFFF"/>
        <circle cx="133" cy="145" r="8" class="skin hand" fill="#FDBCB4"/>
        <!-- Holiday Mittens -->
        <circle cx="133" cy="145" r="10" class="mitten" fill="#DC143C"/>
        <rect x="131" y="140" width="4" height="8" class="mitten-cuff" fill="#FFFFFF"/>
      </g>
    </g>
    
    <!-- Legs -->
    <g class="part legs">
      <!-- Left Leg -->
      <rect x="80" y="150" width="18" height="50" rx="9" class="pants leg-left" fill="#FFFFFF"/>
      <ellipse cx="89" cy="205" rx="12" ry="8" class="boots shoe-left" fill="#8B0000"/>
      <!-- Boot Fur Trim -->
      <ellipse cx="89" cy="195" rx="12" ry="3" class="boot-trim" fill="#FFFFFF"/>
      
      <!-- Right Leg -->
      <rect x="102" y="150" width="18" height="50" rx="9" class="pants leg-right" fill="#FFFFFF"/>
      <ellipse cx="111" cy="205" rx="12" ry="8" class="boots shoe-right" fill="#8B0000"/>
      <!-- Boot Fur Trim -->
      <ellipse cx="111" cy="195" rx="12" ry="3" class="boot-trim" fill="#FFFFFF"/>
    </g>
    
    <!-- Accessories -->
    <g class="accessories">
      <!-- Holiday Scarf -->
      <path d="M 85 85 Q 100 80, 115 85 Q 110 95, 100 100 Q 90 95, 85 85" 
            class="scarf" fill="#DC143C"/>
      <path d="M 85 85 Q 100 90, 115 85" class="scarf-stripe" stroke="#FFFFFF" stroke-width="3" fill="none"/>
      <path d="M 85 95 Q 100 100, 115 95" class="scarf-stripe" stroke="#FFFFFF" stroke-width="3" fill="none"/>
      
      <!-- Holiday Necklace -->
      <circle cx="100" cy="85" r="3" class="necklace" fill="#FFD700"/>
      <path d="M 85 85 Q 100 90, 115 85" class="necklace-chain" stroke="#FFD700" stroke-width="2" fill="none"/>
      <circle cx="90" cy="87" r="2" class="necklace-bell" fill="#FFD700"/>
      <circle cx="100" cy="88" r="2" class="necklace-bell" fill="#FFD700"/>
      <circle cx="110" cy="87" r="2" class="necklace-bell" fill="#FFD700"/>
      
      <!-- Gift Bag -->
      <g class="gift-bag" transform="translate(145, 130)">
        <rect x="0" y="0" width="20" height="25" rx="2" class="bag" fill="#DC143C"/>
        <rect x="0" y="0" width="20" height="3" class="bag-top" fill="#228B22"/>
        <path d="M 10 0 L 10 -5" class="bag-handle" stroke="#8B4513" stroke-width="2" fill="none"/>
        <rect x="8" y="0" width="4" height="25" class="bag-ribbon" fill="#FFD700"/>
        <rect x="0" y="12" width="20" height="4" class="bag-bow" fill="#FFD700"/>
      </g>
      
      <!-- Snowflakes around character -->
      <g class="snowflakes">
        <g transform="translate(50, 40)">
          <path d="M 0 -5 L 0 5 M -5 0 L 5 0 M -3.5 -3.5 L 3.5 3.5 M -3.5 3.5 L 3.5 -3.5" 
                class="snowflake-small" stroke="#FFFFFF" stroke-width="1" fill="none"/>
        </g>
        <g transform="translate(150, 50)">
          <path d="M 0 -5 L 0 5 M -5 0 L 5 0 M -3.5 -3.5 L 3.5 3.5 M -3.5 3.5 L 3.5 -3.5" 
                class="snowflake-small" stroke="#FFFFFF" stroke-width="1" fill="none"/>
        </g>
        <g transform="translate(45, 180)">
          <path d="M 0 -5 L 0 5 M -5 0 L 5 0 M -3.5 -3.5 L 3.5 3.5 M -3.5 3.5 L 3.5 -3.5" 
                class="snowflake-small" stroke="#FFFFFF" stroke-width="1" fill="none"/>
        </g>
        <g transform="translate(155, 170)">
          <path d="M 0 -5 L 0 5 M -5 0 L 5 0 M -3.5 -3.5 L 3.5 3.5 M -3.5 3.5 L 3.5 -3.5" 
                class="snowflake-small" stroke="#FFFFFF" stroke-width="1" fill="none"/>
        </g>
      </g>
    </g>
    
  </g>
  
  <!-- Animation Classes -->
  <style>
    .character-girl-holiday {
      transform-origin: 100px 150px;
    }
    
    /* Base styles for customization */
    .skin {
      fill: var(--skin-color, #FDBCB4);
    }
    
    .hair {
      fill: var(--hair-color, #8B4513);
    }
    
    .sweater {
      fill: var(--sweater-color, #228B22);
    }
    
    .pants {
      fill: var(--pants-color, #FFFFFF);
    }
    
    .boots {
      fill: var(--boots-color, #8B0000);
    }
    
    .santa-hat {
      fill: var(--hat-color, #DC143C);
    }
    
    .hat-pom-pom {
      fill: var(--pom-pom-color, #FFFFFF);
    }
    
    .hat-top {
      fill: var(--pom-pom-color, #FFFFFF);
    }
    
    .hat-brim {
      fill: var(--brim-color, #FFFFFF);
    }
    
    .snowflake {
      fill: var(--snowflake-color, #FFFFFF);
    }
    
    .sweater-trim {
      fill: var(--trim-color, #FFFFFF);
    }
    
    .sleeve-cuff {
      fill: var(--cuff-color, #FFFFFF);
    }
    
    .mitten {
      fill: var(--mitten-color, #DC143C);
    }
    
    .mitten-cuff {
      fill: var(--cuff-color, #FFFFFF);
    }
    
    .boot-trim {
      fill: var(--trim-color, #FFFFFF);
    }
    
    .scarf {
      fill: var(--scarf-color, #DC143C);
    }
    
    .scarf-stripe {
      stroke: var(--stripe-color, #FFFFFF);
    }
    
    .necklace {
      fill: var(--necklace-color, #FFD700);
    }
    
    .necklace-chain {
      stroke: var(--necklace-color, #FFD700);
    }
    
    .necklace-bell {
      fill: var(--bell-color, #FFD700);
    }
    
    .bag {
      fill: var(--bag-color, #DC143C);
    }
    
    .bag-top {
      fill: var(--bag-top-color, #228B22);
    }
    
    .bag-handle {
      stroke: var(--handle-color, #8B4513);
    }
    
    .bag-ribbon {
      fill: var(--ribbon-color, #FFD700);
    }
    
    .bag-bow {
      fill: var(--ribbon-color, #FFD700);
    }
    
    .snowflake-small {
      stroke: var(--snowflake-color, #FFFFFF);
    }
    
    .cheek {
      fill: var(--cheek-color, #FF69B4);
    }
    
    .earring {
      fill: var(--earring-color, #FFD700);
    }
    
    .eye-sparkle {
      fill: var(--sparkle-color, #FFFFFF);
    }
    
    /* Animation states will be added via external CSS */
  </style>
</svg>