<svg viewBox="0 0 200 300" xmlns="http://www.w3.org/2000/svg" class="character-woman-historical">
  <!-- Character: Historical Woman (Medieval/Renaissance Style) -->
  
  <!-- Body Group -->
  <g class="character-body">
    
    <!-- Head -->
    <g class="part head">
      <circle cx="100" cy="60" r="35" class="skin" fill="#FDBCB4"/>
      
      <!-- Hair (Historical style) -->
      <path d="M 65 35 Q 100 20, 135 35 Q 140 55, 135 75 L 130 70 Q 120 55, 115 50 L 115 65 Q 100 70, 85 65 L 85 50 Q 80 55, 70 70 L 65 75 Q 60 55, 65 35" 
            class="hair" fill="#8B4513"/>
      
      <!-- Historical Headpiece -->
      <path d="M 60 30 Q 100 15, 140 30 L 140 45 Q 100 55, 60 45 Z" class="headpiece" fill="#8B0000"/>
      <path d="M 60 30 Q 100 20, 140 30" class="headpiece-trim" stroke="#FFD700" stroke-width="2" fill="none"/>
      <circle cx="80" cy="35" r="3" class="jewel" fill="#FF1493"/>
      <circle cx="100" cy="32" r="3" class="jewel" fill="#FF1493"/>
      <circle cx="120" cy="35" r="3" class="jewel" fill="#FF1493"/>
      
      <!-- Eyes -->
      <g class="eyes">
        <ellipse cx="85" cy="55" rx="3" ry="5" class="eye" fill="#000000"/>
        <ellipse cx="115" cy="55" rx="3" ry="5" class="eye" fill="#000000"/>
      </g>
      
      <!-- Mouth -->
      <path d="M 90 70 Q 100 75, 110 70" class="mouth" stroke="#000000" stroke-width="2" fill="none"/>
      
      <!-- Ears -->
      <circle cx="65" cy="60" r="8" class="skin ear" fill="#FDBCB4"/>
      <circle cx="135" cy="60" r="8" class="skin ear" fill="#FDBCB4"/>
      
      <!-- Historical Earrings -->
      <circle cx="65" cy="60" r="4" class="earring" fill="#FFD700"/>
      <circle cx="135" cy="60" r="4" class="earring" fill="#FFD700"/>
    </g>
    
    <!-- Torso -->
    <g class="part torso">
      <!-- Historical Gown -->
      <path d="M 70 90 L 70 140 Q 70 150, 80 150 L 120 150 Q 130 150, 130 140 L 130 90 Q 100 85, 70 90" 
            class="gown" fill="#8B0000"/>
      
      <!-- Gown Embroidery -->
      <path d="M 75 95 Q 100 100, 125 95" class="embroidery" stroke="#FFD700" stroke-width="2" fill="none"/>
      <path d="M 75 105 Q 100 110, 125 105" class="embroidery" stroke="#FFD700" stroke-width="2" fill="none"/>
      <path d="M 75 115 Q 100 120, 125 115" class="embroidery" stroke="#FFD700" stroke-width="2" fill="none"/>
      <path d="M 75 125 Q 100 130, 125 125" class="embroidery" stroke="#FFD700" stroke-width="2" fill="none"/>
      <path d="M 75 135 Q 100 140, 125 135" class="embroidery" stroke="#FFD700" stroke-width="2" fill="none"/>
      
      <!-- Decorative Patterns -->
      <circle cx="85" cy="100" r="2" class="pattern" fill="#FFD700"/>
      <circle cx="100" cy="100" r="2" class="pattern" fill="#FFD700"/>
      <circle cx="115" cy="100" r="2" class="pattern" fill="#FFD700"/>
      <circle cx="85" cy="120" r="2" class="pattern" fill="#FFD700"/>
      <circle cx="100" cy="120" r="2" class="pattern" fill="#FFD700"/>
      <circle cx="115" cy="120" r="2" class="pattern" fill="#FFD700"/>
      
      <!-- Apron -->
      <path d="M 80 100 L 80 140 Q 80 145, 85 145 L 115 145 Q 120 145, 120 140 L 120 100 Q 100 95, 80 100" 
            class="apron" fill="#F5F5DC"/>
      <path d="M 80 100 L 120 100" class="apron-border" stroke="#8B0000" stroke-width="2" fill="none"/>
      
      <!-- Arms -->
      <g class="arms">
        <!-- Left Arm -->
        <rect x="60" y="95" width="15" height="40" rx="7" class="gown arm-left" fill="#8B0000"/>
        <rect x="62" y="135" width="11" height="15" rx="5" class="sleeve-left" fill="#F5F5DC"/>
        <circle cx="67" cy="155" r="8" class="skin hand" fill="#FDBCB4"/>
        <!-- Historical Bracelet -->
        <rect x="60" y="125" width="15" height="3" class="bracelet" fill="#FFD700"/>
        
        <!-- Right Arm -->
        <rect x="125" y="95" width="15" height="40" rx="7" class="gown arm-right" fill="#8B0000"/>
        <rect x="127" y="135" width="11" height="15" rx="5" class="sleeve-right" fill="#F5F5DC"/>
        <circle cx="133" cy="155" r="8" class="skin hand" fill="#FDBCB4"/>
        <!-- Historical Bracelet -->
        <rect x="125" y="125" width="15" height="3" class="bracelet" fill="#FFD700"/>
      </g>
    </g>
    
    <!-- Legs -->
    <g class="part legs">
      <!-- Left Leg -->
      <rect x="80" y="150" width="18" height="50" rx="9" class="gown leg-left" fill="#8B0000"/>
      <ellipse cx="89" cy="205" rx="12" ry="8" class="shoes shoe-left" fill="#654321"/>
      
      <!-- Right Leg -->
      <rect x="102" y="150" width="18" height="50" rx="9" class="gown leg-right" fill="#8B0000"/>
      <ellipse cx="111" cy="205" rx="12" ry="8" class="shoes shoe-right" fill="#654321"/>
    </g>
    
    <!-- Accessories -->
    <g class="accessories">
      <!-- Historical Necklace -->
      <circle cx="100" cy="85" r="4" class="necklace" fill="#FFD700"/>
      <path d="M 85 85 Q 100 95, 115 85" class="necklace-chain" stroke="#FFD700" stroke-width="2" fill="none"/>
      <circle cx="90" cy="88" r="2" class="necklace-jewel" fill="#FF1493"/>
      <circle cx="100" cy="90" r="2" class="necklace-jewel" fill="#FF1493"/>
      <circle cx="110" cy="88" r="2" class="necklace-jewel" fill="#FF1493"/>
      
      <!-- Belt -->
      <rect x="70" y="140" width="60" height="6" class="belt" fill="#654321"/>
      <rect x="95" y="140" width="10" height="6" class="belt-buckle" fill="#FFD700"/>
      
      <!-- Pouch -->
      <rect x="135" y="130" width="15" height="20" rx="3" class="pouch" fill="#8B4513"/>
      <rect x="135" y="130" width="15" height="3" class="pouch-flap" fill="#654321"/>
      
      <!-- Historical Fan -->
      <g class="fan" transform="translate(45, 120)">
        <path d="M 0 0 Q 8 -3, 16 0 Q 12 8, 8 12 Q 4 8, 0 0" class="fan-body" fill="#8B0000"/>
        <path d="M 0 0 L 8 12 M 16 0 L 8 12" class="fan-ribs" stroke="#FFD700" stroke-width="1" fill="none"/>
        <circle cx="8" cy="12" r="2" class="fan-handle" fill="#8B4513"/>
      </g>
      
      <!-- Hand Accessories -->
      <circle cx="67" cy="155" r="2" class="ring" stroke="#FFD700" stroke-width="1" fill="none"/>
      <circle cx="133" cy="155" r="2" class="ring" stroke="#FFD700" stroke-width="1" fill="none"/>
    </g>
    
  </g>
  
  <!-- Animation Classes -->
  <style>
    .character-woman-historical {
      transform-origin: 100px 150px;
    }
    
    /* Base styles for customization */
    .skin {
      fill: var(--skin-color, #FDBCB4);
    }
    
    .hair {
      fill: var(--hair-color, #8B4513);
    }
    
    .gown {
      fill: var(--gown-color, #8B0000);
    }
    
    .shoes {
      fill: var(--shoes-color, #654321);
    }
    
    .headpiece {
      fill: var(--headpiece-color, #8B0000);
    }
    
    .headpiece-trim {
      stroke: var(--trim-color, #FFD700);
    }
    
    .jewel {
      fill: var(--jewel-color, #FF1493);
    }
    
    .embroidery {
      stroke: var(--embroidery-color, #FFD700);
    }
    
    .pattern {
      fill: var(--pattern-color, #FFD700);
    }
    
    .apron {
      fill: var(--apron-color, #F5F5DC);
    }
    
    .apron-border {
      stroke: var(--apron-border-color, #8B0000);
    }
    
    .sleeve-left, .sleeve-right {
      fill: var(--sleeve-color, #F5F5DC);
    }
    
    .bracelet {
      fill: var(--bracelet-color, #FFD700);
    }
    
    .necklace {
      fill: var(--necklace-color, #FFD700);
    }
    
    .necklace-chain {
      stroke: var(--necklace-color, #FFD700);
    }
    
    .necklace-jewel {
      fill: var(--jewel-color, #FF1493);
    }
    
    .belt {
      fill: var(--belt-color, #654321);
    }
    
    .belt-buckle {
      fill: var(--buckle-color, #FFD700);
    }
    
    .pouch {
      fill: var(--pouch-color, #8B4513);
    }
    
    .pouch-flap {
      fill: var(--pouch-flap-color, #654321);
    }
    
    .fan-body {
      fill: var(--fan-color, #8B0000);
    }
    
    .fan-ribs {
      stroke: var(--fan-ribs-color, #FFD700);
    }
    
    .fan-handle {
      fill: var(--fan-handle-color, #8B4513);
    }
    
    .ring {
      stroke: var(--ring-color, #FFD700);
    }
    
    .earring {
      fill: var(--earring-color, #FFD700);
    }
    
    /* Animation states will be added via external CSS */
  </style>
</svg>